<svg width="26" height="17" viewBox="0 0 26 17" fill="none"
    xmlns="http://www.w3.org/2000/svg">
    <path d="M1.10762 14.7974C1.18876 14.88 1.29799 14.9276 1.41346 14.9276H8.34168C8.26054 15.3944 8.20436 15.8992 8.19812 16.4453C8.195 16.5628 8.24181 16.6771 8.32296 16.7597C8.4041 16.8422 8.51333 16.8899 8.63192 16.8899L18.1785 16.8867C18.4126 16.8867 18.6029 16.6994 18.6092 16.4612C18.6092 16.4009 18.6248 15.7786 18.4999 14.9276H25.4719C25.7059 14.9276 25.8963 14.7403 25.9025 14.5022C25.9057 14.3529 25.9962 10.7936 23.8053 8.75197C23.6524 8.60909 23.4184 8.59639 23.2498 8.72657C23.2249 8.74562 20.6752 10.6952 18.3002 8.72975C18.1379 8.59639 17.9039 8.59957 17.7447 8.73927C17.6948 8.78373 16.9957 9.41558 16.3903 10.6348C16.2498 10.5745 16.0844 10.5904 15.9565 10.6888C15.8535 10.7682 13.3693 12.6479 11.0069 10.692C10.8914 10.5967 10.7385 10.5713 10.6043 10.6158C10.2984 9.949 9.88024 9.2981 9.29353 8.75515C9.14061 8.61227 8.90655 8.59957 8.73802 8.72975C8.71306 8.7488 6.16335 10.6983 3.7884 8.73292C3.62612 8.59957 3.39206 8.60274 3.2329 8.74245C3.14552 8.81548 1.03584 10.7237 0.982788 14.4831C0.982788 14.6006 1.02648 14.7149 1.10762 14.7974ZM18.0693 9.65054C20.3256 11.2508 22.6288 10.1395 23.4527 9.63466C24.7353 11.0349 24.9819 13.1527 25.0256 14.0481H18.3221C18.1036 13.1495 17.7166 12.1462 17.0394 11.2889C17.4014 10.4951 17.8134 9.94583 18.0693 9.65054ZM10.7759 11.6128C13.0323 13.213 15.3354 12.1017 16.1593 11.5969C17.442 12.9971 17.6885 15.115 17.7322 16.0103L9.07507 16.0135C9.22799 13.6512 10.2922 12.1716 10.7759 11.6128ZM3.56371 9.65054C5.82006 11.2508 8.12322 10.1395 8.94712 9.63466C9.39028 10.1173 9.70548 10.6856 9.93642 11.2603C9.50575 11.8001 8.90967 12.7272 8.53829 14.0481H1.86286C2.01578 11.689 3.07686 10.2094 3.56371 9.65054Z" />
    <path d="M6.18836 8.37413C7.27752 8.37413 8.30427 7.94231 9.07511 7.15488C9.18122 7.04692 9.28109 6.93262 9.37471 6.81514C9.67431 8.80595 11.3658 10.3332 13.4037 10.3332C14.4929 10.3332 15.5165 9.90137 16.2873 9.11394C16.9302 8.45986 17.3297 7.6248 17.4452 6.72306C18.191 7.72323 19.3676 8.37096 20.6939 8.37096C21.7831 8.37096 22.8067 7.93914 23.5776 7.1517C24.3484 6.36744 24.776 5.32282 24.7728 4.2147C24.776 1.93177 22.944 0.0679626 20.6939 0.0679626C19.6048 0.0679626 18.578 0.499782 17.8072 1.28722C17.1643 1.9413 16.7648 2.77636 16.6493 3.6781C15.9035 2.67793 14.7269 2.0302 13.4006 2.0302C12.3114 2.0302 11.2878 2.46202 10.5138 3.24945C10.4077 3.35741 10.3078 3.47171 10.2142 3.58919C9.91461 1.59838 8.22625 0.0679626 6.18836 0.0679626C5.09919 0.0679626 4.07244 0.499782 3.3016 1.28722C2.53075 2.07148 2.10632 3.1161 2.10632 4.22422C2.10632 6.5135 3.93824 8.37413 6.18836 8.37413ZM18.4188 1.90637C19.0274 1.28722 19.8357 0.944302 20.6939 0.944302C22.4697 0.944302 23.9115 2.41439 23.9146 4.21787C23.9146 5.09104 23.5776 5.9134 22.969 6.53255C22.3604 7.1517 21.5522 7.49462 20.6939 7.49462C18.9182 7.49462 17.4732 6.02453 17.4732 4.22105C17.4732 3.34788 17.8103 2.52552 18.4188 1.90637ZM11.1255 3.86543C11.7341 3.24628 12.5423 2.90336 13.4006 2.90336C15.1763 2.90336 16.6213 4.37345 16.6213 6.17693C16.6213 7.0501 16.2873 7.87246 15.6756 8.49161C15.0671 9.11076 14.2588 9.45368 13.4006 9.45368C11.6248 9.45368 10.183 7.98359 10.1799 6.18011C10.183 5.31012 10.5169 4.48776 11.1255 3.86543ZM3.91328 1.90637C4.52184 1.28722 5.33013 0.944302 6.18836 0.944302C7.9641 0.944302 9.40592 2.41439 9.40904 4.21787C9.40904 5.09104 9.07511 5.9134 8.46343 6.53255C7.85487 7.1517 7.04658 7.49462 6.18836 7.49462C4.41261 7.49462 2.96767 6.02453 2.96767 4.22105C2.96767 3.34788 3.3016 2.52552 3.91328 1.90637Z" />
</svg>
