<svg width="22" height="20" viewBox="0 0 22 20" fill="none"
    xmlns="http://www.w3.org/2000/svg">
    <path d="M1.77331 3.03253L3.3004 3.87548L5.55993 12.9437L4.49662 13.7866C4.24211 13.9881 4.09788 14.289 4.09788 14.6154V16.2048C4.09788 16.781 4.5645 17.2521 5.13291 17.2606L6.18208 17.2748C6.12835 17.4394 6.10007 17.6154 6.10007 17.7942C6.10007 18.728 6.85513 19.4858 7.78553 19.4858C8.71592 19.4858 9.47099 18.728 9.47099 17.7942C9.47099 17.6324 9.44836 17.4735 9.40312 17.3202L16.3825 17.4196C16.3542 17.5416 16.3401 17.6665 16.3401 17.7942C16.3401 18.728 17.0951 19.4858 18.0255 19.4858C18.9559 19.4858 19.711 18.728 19.711 17.7942C19.711 17.6835 19.6997 17.5728 19.6771 17.465L20.138 17.4707C20.7093 17.4707 21.1815 17.0052 21.19 16.4319C21.1928 16.1509 21.0882 15.8841 20.8931 15.6826C20.6979 15.4811 20.4349 15.3675 20.155 15.3618L6.20188 15.1632V15.1263L6.93997 14.5416C7.00784 14.5529 7.07571 14.5558 7.14076 14.5558L18.5544 14.6636C19.2698 14.6636 19.8835 14.1755 20.0419 13.4744L21.5209 7.01174C21.7075 6.18865 21.1928 5.36556 20.3756 5.1754C19.5555 4.98807 18.7353 5.50463 18.5459 6.32488L17.3412 11.587L8.34829 11.5047L6.10007 2.48191C5.99544 2.07036 5.72395 1.71558 5.35632 1.51123L3.24384 0.344711C2.50575 -0.0611577 1.57535 0.211313 1.17096 0.952094C0.76656 1.69288 1.03522 2.62382 1.77331 3.03253ZM1.9034 1.35512C2.08721 1.02021 2.50858 0.898168 2.84227 1.08265L4.95192 2.24633C5.11877 2.33999 5.2432 2.49894 5.28845 2.68626L7.61302 12.0212C7.65827 12.2057 7.82512 12.3363 8.01459 12.3391L17.6664 12.4299C17.8643 12.4186 18.034 12.2965 18.0764 12.1035L19.3547 6.51221C19.4395 6.1404 19.8128 5.90766 20.1833 5.99281C20.5537 6.07796 20.7856 6.44977 20.7008 6.82158L19.2218 13.2843C19.1482 13.6021 18.8739 13.8207 18.543 13.8207L7.14076 13.7128C7.0842 13.7128 7.02198 13.7015 6.95128 13.6816C6.8212 13.6419 6.6798 13.6703 6.57234 13.7526L5.51751 14.587C5.41571 14.6665 5.35915 14.7885 5.35915 14.9162V15.5719C5.35915 15.8018 5.54297 15.9891 5.77203 15.9919L20.138 16.1934C20.1946 16.1934 20.2483 16.2162 20.2907 16.2587C20.3133 16.2814 20.3529 16.3354 20.3501 16.412C20.3473 16.5284 20.2511 16.6249 20.1324 16.6249L19.0408 16.6107C18.8796 16.6107 18.7353 16.6958 18.6618 16.8377C18.5883 16.9796 18.6053 17.1528 18.6986 17.2805C18.8117 17.4309 18.8711 17.6069 18.8711 17.7857C18.8711 18.254 18.4893 18.6372 18.0227 18.6372C17.5561 18.6372 17.1743 18.254 17.1743 17.7857C17.1743 17.5473 17.2761 17.3685 17.361 17.2606C17.4599 17.1357 17.4797 16.9655 17.4119 16.8207C17.344 16.6759 17.1998 16.5823 17.0414 16.5823L8.67916 16.4659C8.67633 16.4659 8.67633 16.4659 8.67633 16.4659C8.50666 16.4659 8.35395 16.5681 8.2889 16.7242C8.22386 16.8831 8.2578 17.0648 8.3794 17.184C8.54342 17.3458 8.63109 17.5615 8.63109 17.7885C8.63109 18.2568 8.24931 18.64 7.7827 18.64C7.31609 18.64 6.93432 18.2568 6.93432 17.7885C6.93432 17.553 7.03047 17.3316 7.20863 17.167C7.33306 17.0506 7.37548 16.8689 7.31326 16.71C7.25105 16.5511 7.09834 16.4432 6.92866 16.4404L5.13857 16.4148C5.02262 16.4148 4.92647 16.3155 4.92647 16.1991V14.6097C4.92647 14.5444 4.95758 14.482 5.00848 14.4394L6.28389 13.429C6.41397 13.3268 6.47053 13.1594 6.43094 12.9976L4.06112 3.48948C4.03284 3.37595 3.95931 3.27945 3.85751 3.22269L2.17488 2.29742C1.84118 2.11294 1.71958 1.69004 1.9034 1.35512Z" />
    <path d="M13.8724 2.0271H11.7932C11.1711 2.0271 10.6617 2.50646 10.6617 3.09795V5.6377H10.019C9.61909 5.6377 9.30809 5.79188 9.16591 6.06099C9.02374 6.3301 9.08002 6.65809 9.31697 6.96084L11.959 10.3191C12.1782 10.5967 12.4951 10.7565 12.8298 10.7565C13.1645 10.7565 13.4815 10.5967 13.7006 10.3191L16.3427 6.96084C16.5797 6.65809 16.6359 6.3301 16.4938 6.06099C16.3516 5.79188 16.0406 5.6405 15.6407 5.6405H14.998V3.10075C15.0039 2.50926 14.4974 2.0271 13.8724 2.0271ZM15.6437 6.47027L13.0016 9.82577C12.898 9.96033 12.7706 9.96033 12.6669 9.82577L10.0249 6.47027H11.1001C11.3429 6.47027 11.5384 6.28525 11.5384 6.05539V3.09795C11.5384 2.96339 11.651 2.85686 11.7932 2.85686H13.8724C14.0117 2.85686 14.1272 2.96619 14.1272 3.09795V6.05258C14.1272 6.28245 14.3227 6.46746 14.5655 6.46746H15.6437V6.47027Z" />
</svg>
