<svg width="16" height="19" viewBox="0 0 16 19" fill="none"
    xmlns="http://www.w3.org/2000/svg">
    <path d="M1.31608 14.4528V17.196C1.31608 17.974 1.95002 18.6137 2.73379 18.6137H3.21213C3.99014 18.6137 4.62984 17.9797 4.62984 17.196V14.4528C5.07359 14.2856 5.39056 13.8534 5.39056 13.3462V12.9832C5.39056 12.4818 5.07359 12.0496 4.62984 11.8824V1.56081C4.62984 0.777033 3.99014 0.143097 3.21213 0.143097H2.73379C1.95578 0.143097 1.31608 0.777033 1.31608 1.56081V11.8882C0.872327 12.0553 0.555359 12.4876 0.555359 12.9889V13.352C0.555359 13.8534 0.872327 14.2856 1.31608 14.4528ZM2.73379 1.04213H3.21213C3.49452 1.04213 3.7308 1.27266 3.7308 1.56081V11.8075H2.21512V1.56081C2.21512 1.27266 2.4514 1.04213 2.73379 1.04213ZM1.4544 12.9889C1.4544 12.8391 1.58118 12.7065 1.73678 12.7065H4.20913C4.36474 12.7065 4.49152 12.8333 4.49152 12.9889V13.352C4.49152 13.5076 4.36474 13.6344 4.20913 13.6344H1.73678C1.58118 13.6344 1.4544 13.5076 1.4544 13.352V12.9889ZM3.21213 17.7146H2.73379C2.4514 17.7146 2.21512 17.4841 2.21512 17.196V14.5334H3.72504V17.196C3.7308 17.4784 3.49452 17.7146 3.21213 17.7146Z" />
    <path d="M6.42215 10.3898V17.196C6.42215 17.974 7.05608 18.6137 7.83986 18.6137H8.31819C9.0962 18.6137 9.7359 17.9797 9.7359 17.196V10.3552C10.1566 10.1766 10.4505 9.75587 10.4505 9.27177V8.9087C10.4505 8.4246 10.1566 8.0039 9.7359 7.82525V1.56081C9.7359 0.777033 9.10197 0.143097 8.31819 0.143097H7.83986C7.06185 0.143097 6.42215 0.777033 6.42215 1.56081V7.79067C5.94958 7.94627 5.60956 8.39002 5.60956 8.91446V9.27753C5.60956 9.79045 5.95534 10.2342 6.42215 10.3898ZM7.83986 1.04213H8.31819C8.60058 1.04213 8.83687 1.27266 8.83687 1.56081V7.72727H7.32695V1.56081C7.32118 1.27266 7.55171 1.04213 7.83986 1.04213ZM6.51436 8.9087C6.51436 8.75886 6.64114 8.62631 6.79675 8.62631H9.2691C9.41894 8.62631 9.55149 8.7531 9.55149 8.9087V9.27177C9.55149 9.42737 9.4247 9.55416 9.2691 9.55416H6.79675C6.64691 9.55416 6.51436 9.42737 6.51436 9.27177V8.9087ZM8.31819 17.7146H7.83986C7.55747 17.7146 7.32118 17.4841 7.32118 17.196V10.4532H8.8311V17.196C8.8311 17.4784 8.60058 17.7146 8.31819 17.7146Z" />
    <path d="M11.7127 6.39025V17.196C11.7127 17.974 12.3466 18.6137 13.1304 18.6137H13.6087C14.3867 18.6137 15.0264 17.9797 15.0264 17.196V6.39025C15.4702 6.22312 15.7871 5.79089 15.7871 5.2895V4.92067C15.7871 4.41928 15.4702 3.98705 15.0264 3.81992V1.56081C15.0206 0.777033 14.3867 0.143097 13.6029 0.143097H13.1246C12.3408 0.143097 11.7069 0.777033 11.7069 1.56081V3.81992C11.2631 3.98705 10.9462 4.41928 10.9462 4.92067V5.28374C10.9462 5.79089 11.2631 6.21735 11.7127 6.39025ZM13.1246 1.04213H13.6029C13.8853 1.04213 14.1216 1.27266 14.1216 1.56081V3.745H12.6117V1.56081C12.6117 1.27266 12.8422 1.04213 13.1246 1.04213ZM11.8452 4.92067C11.8452 4.77083 11.972 4.63828 12.1276 4.63828H14.5999C14.7498 4.63828 14.8823 4.76506 14.8823 4.92067V5.28374C14.8823 5.43358 14.7555 5.56613 14.5999 5.56613H12.1276C11.972 5.56613 11.8452 5.43934 11.8452 5.28374V4.92067ZM13.6029 17.7146H13.1246C12.8422 17.7146 12.6059 17.4841 12.6059 17.196V6.46517H14.1158V17.196C14.1216 17.4784 13.8911 17.7146 13.6029 17.7146Z" />
</svg>
