<svg width="18" height="21" viewBox="0 0 18 21" fill="none"
    xmlns="http://www.w3.org/2000/svg">
    <path d="M12.8493 20.0288C12.9428 20.0288 13.03 19.9914 13.1047 19.9291L17.0478 16.2103C17.1225 16.1418 17.1599 16.0422 17.1599 15.9425C17.1973 15.8802 17.2222 15.8054 17.2222 15.7182V1.95803C17.2222 1.09841 16.5245 0.400742 15.6649 0.400742H2.54008C1.68045 0.400742 0.982788 1.09841 0.982788 1.95803V18.5712C0.982788 19.4308 1.68045 20.1285 2.54008 20.1285H12.569C12.6749 20.1285 12.7746 20.0911 12.8493 20.0288ZM13.2168 18.8079V17.3814C13.2168 16.7897 13.6965 16.3162 14.282 16.3162H15.8642L13.2168 18.8079ZM12.1392 19.2626H2.54008C2.1601 19.2626 1.84864 18.9512 1.84864 18.5712V1.95803C1.84864 1.57805 2.1601 1.26659 2.54008 1.26659H15.6649C16.0449 1.26659 16.3563 1.57805 16.3563 1.95803V15.2884H14.3381C13.1234 15.2884 12.1392 16.2726 12.1392 17.4873V19.2626Z" />
    <path d="M4.3465 6.14401H13.8584C14.0951 6.14401 14.2882 5.9509 14.2882 5.71419V4.93555C14.2882 4.69884 14.0951 4.50574 13.8584 4.50574H4.3465C4.10357 4.50574 3.91046 4.69884 3.91046 4.93555V5.70796C3.91046 5.9509 4.10357 6.14401 4.3465 6.14401ZM4.43371 5.02276H13.7712V5.62076H4.43371V5.02276Z" />
    <path d="M4.34658 8.84745H13.8585C14.0952 8.84745 14.2883 8.65434 14.2883 8.41764V7.64522C14.2883 7.40851 14.0952 7.21541 13.8585 7.21541H4.34658C4.10988 7.21541 3.91677 7.40851 3.91677 7.64522V8.41764C3.91054 8.65434 4.10365 8.84745 4.34658 8.84745ZM4.43379 7.73243H13.7713V8.33043H4.43379V7.73243Z" />
    <path d="M14.2883 11.1274V10.355C14.2883 10.1182 14.0952 9.92514 13.8585 9.92514H4.34656C4.10985 9.92514 3.91675 10.1182 3.91675 10.355V11.1274C3.91675 11.3641 4.10985 11.5572 4.34656 11.5572H13.8585C14.0952 11.5572 14.2883 11.3641 14.2883 11.1274ZM13.7713 11.0402H4.43377V10.4422H13.7713V11.0402Z" />
</svg>
