<svg width="18" height="18" viewBox="0 0 18 18" fill="none"
    xmlns="http://www.w3.org/2000/svg">
    <path d="M10.962 6.25835H15.9515C16.045 6.25835 16.1197 6.1836 16.1197 6.09016V4.71975C16.1197 4.62631 16.045 4.55156 15.9515 4.55156H10.962C10.8685 4.55156 10.7938 4.62631 10.7938 4.71975V6.09016C10.7876 6.17737 10.8685 6.25835 10.962 6.25835ZM11.1302 4.88793H15.7833V5.92197H11.1302V4.88793Z" />
    <path d="M15.9764 12.6495H10.9806C10.8872 12.6495 10.8124 12.7242 10.8124 12.8176V14.1881C10.8124 14.2815 10.8872 14.3562 10.9806 14.3562H15.9764C16.0698 14.3562 16.1446 14.2815 16.1446 14.1881V12.8176C16.1446 12.7242 16.0698 12.6495 15.9764 12.6495ZM15.8082 14.0199H11.155V12.9858H15.8082V14.0199Z" />
    <path d="M12.9427 12.3567H14.0141C14.1076 12.3567 14.1823 12.2819 14.1823 12.1885V11.1545C14.1823 11.061 14.1076 10.9863 14.0141 10.9863H12.9427C12.8493 10.9863 12.7745 11.061 12.7745 11.1545V12.1885C12.7745 12.2819 12.8493 12.3567 12.9427 12.3567ZM13.1109 11.3289H13.846V12.0203H13.1109V11.3289Z" />
    <path d="M14.0141 14.6428H12.9427C12.8493 14.6428 12.7745 14.7175 12.7745 14.811V15.845C12.7745 15.9385 12.8493 16.0132 12.9427 16.0132H14.0141C14.1076 16.0132 14.1823 15.9385 14.1823 15.845V14.8172C14.1823 14.7238 14.1076 14.6428 14.0141 14.6428ZM13.846 15.6768H13.1109V14.9854H13.846V15.6768Z" />
    <path d="M7.79757 4.55158H6.15308V2.90708C6.15308 2.81364 6.07833 2.73889 5.98489 2.73889H4.61447C4.52104 2.73889 4.44629 2.81364 4.44629 2.90708V4.55158H2.80802C2.71458 4.55158 2.63983 4.62633 2.63983 4.71976V6.09018C2.63983 6.18361 2.71458 6.25836 2.80802 6.25836H4.45252V7.90286C4.45252 7.9963 4.52727 8.07105 4.6207 8.07105H5.99112C6.08455 8.07105 6.15931 7.9963 6.15931 7.90286V6.25836H7.8038C7.89724 6.25836 7.97199 6.18361 7.97199 6.09018V4.71976C7.96576 4.62633 7.89101 4.55158 7.79757 4.55158ZM7.62939 5.91576H5.98489C5.89145 5.91576 5.8167 5.99051 5.8167 6.08395V7.72845H4.78889V6.08395C4.78889 5.99051 4.71414 5.91576 4.6207 5.91576H2.97621V4.88795H4.6207C4.71414 4.88795 4.78889 4.8132 4.78889 4.71976V3.07527H5.82293V4.71976C5.82293 4.8132 5.89768 4.88795 5.99112 4.88795H7.63562V5.91576H7.62939Z" />
    <path d="M6.50803 13.5963L7.67288 12.4315C7.70402 12.4003 7.72271 12.3567 7.72271 12.3131C7.72271 12.2695 7.70402 12.2259 7.67288 12.1948L6.70736 11.2292C6.63884 11.1607 6.53294 11.1607 6.47065 11.2292L5.31203 12.3941L4.14718 11.2292C4.07866 11.1607 3.97276 11.1607 3.91047 11.2292L2.94495 12.1948C2.9138 12.2259 2.89512 12.2695 2.89512 12.3131C2.89512 12.3567 2.9138 12.4003 2.94495 12.4315L4.09734 13.5963L2.93872 14.7612C2.8702 14.8297 2.8702 14.9356 2.93872 14.9979L3.90424 15.9634C3.96653 16.0257 4.07866 16.0257 4.14095 15.9634L5.3058 14.7985L6.46442 15.9634C6.49557 15.9945 6.53917 16.0132 6.58278 16.0132C6.62638 16.0132 6.66998 15.9945 6.70113 15.9634L7.66665 14.9979C7.73517 14.9293 7.73517 14.8235 7.66665 14.7612L6.50803 13.5963ZM6.58278 15.6083L5.41792 14.4435C5.38678 14.4123 5.34317 14.3936 5.29957 14.3936C5.25597 14.3936 5.21236 14.4123 5.18122 14.4435L4.02259 15.6083L3.29378 14.8795L4.4524 13.7147C4.52093 13.6461 4.52093 13.5402 4.4524 13.478L3.29378 12.3131L4.02259 11.5843L5.18122 12.7491C5.24351 12.8114 5.35563 12.8114 5.41792 12.7491L6.58278 11.5843L7.31159 12.3131L6.15296 13.478C6.08444 13.5465 6.08444 13.6524 6.15296 13.7147L7.31159 14.8795L6.58278 15.6083Z" />
    <path d="M17.8015 16.5053V10.5751C17.8015 10.0457 17.4963 9.59094 17.054 9.36669C17.4838 9.14244 17.7766 8.68771 17.7766 8.17069V2.24676C17.7766 1.50549 17.1724 0.895035 16.4249 0.895035H10.4947C10.0338 0.895035 9.62263 1.13174 9.37969 1.4868C9.13675 1.13174 8.72563 0.895035 8.26467 0.895035H2.33452C1.58702 0.895035 0.982788 1.49926 0.982788 2.24676V8.17692C0.982788 8.70017 1.28179 9.15489 1.71783 9.37914C1.28179 9.59717 0.982788 10.0519 0.982788 10.5751V16.5053C0.982788 17.2528 1.58702 17.857 2.33452 17.857H8.26467C8.73809 17.857 9.14921 17.6141 9.39215 17.2466C9.63509 17.6141 10.0462 17.857 10.5196 17.857H16.4498C17.1911 17.857 17.8015 17.2528 17.8015 16.5053ZM8.60105 16.5053C8.60105 16.6922 8.45155 16.8417 8.26467 16.8417H2.33452C2.14764 16.8417 1.99814 16.6922 1.99814 16.5053V10.5751C1.99814 10.3883 2.14764 10.2388 2.33452 10.2388H8.26467C8.45155 10.2388 8.60105 10.3883 8.60105 10.5751V16.5053ZM8.60105 8.17692C8.60105 8.36379 8.45155 8.51329 8.26467 8.51329H2.33452C2.14764 8.51329 1.99814 8.36379 1.99814 8.17692V2.24676C1.99814 2.05989 2.14764 1.91039 2.33452 1.91039H8.26467C8.45155 1.91039 8.60105 2.05989 8.60105 2.24676V8.17692ZM9.39215 9.8401C9.26134 9.647 9.08692 9.48504 8.87513 9.37914C9.08069 9.27325 9.24888 9.12375 9.37969 8.93687C9.5105 9.12998 9.68492 9.28571 9.89671 9.38537C9.69115 9.49127 9.51673 9.647 9.39215 9.8401ZM10.1583 2.24676C10.1583 2.05989 10.3078 1.91039 10.4947 1.91039H16.4249C16.6117 1.91039 16.7612 2.05989 16.7612 2.24676V8.17692C16.7612 8.36379 16.6117 8.51329 16.4249 8.51329H10.4947C10.3078 8.51329 10.1583 8.36379 10.1583 8.17692V2.24676ZM10.1833 16.5053V10.5751C10.1833 10.3883 10.3328 10.2388 10.5196 10.2388H16.4498C16.6367 10.2388 16.7862 10.3883 16.7862 10.5751V16.5053C16.7862 16.6922 16.6367 16.8417 16.4498 16.8417H10.5196C10.3328 16.8417 10.1833 16.6922 10.1833 16.5053Z" />
</svg>
