<svg width="25" height="25" viewBox="0 0 25 25" fill="none"
    xmlns="http://www.w3.org/2000/svg">
    <path d="M23.16 14.8111H17.5297V12.5988C17.5297 12.2576 17.4387 11.9448 17.2908 11.6832C17.3818 11.6547 17.4558 11.5922 17.5013 11.5069C17.5638 11.3874 17.5581 11.2396 17.4842 11.1258L13.2359 4.71635V3.69265L15.8577 2.61208C15.9942 2.55521 16.0852 2.41872 16.0852 2.27085C16.0852 2.1173 15.9942 1.98649 15.8577 1.92962L12.9629 0.735306C12.8491 0.689809 12.7183 0.701183 12.616 0.76943C12.5136 0.837676 12.451 0.95142 12.451 1.07654V3.45948C12.451 3.51635 12.4681 3.57322 12.4908 3.62441V4.75047L8.26525 11.1315C8.19132 11.2453 8.18563 11.3931 8.24819 11.5126C8.29369 11.5979 8.37331 11.6604 8.45862 11.6889C8.30506 11.9505 8.21976 12.2633 8.21976 12.6045V14.8168H1.95815C1.18469 14.8111 0.553406 15.4481 0.553406 16.2216V22.8585C0.553406 23.6377 1.18469 24.2633 1.95815 24.2633H23.1544C23.9278 24.2633 24.5591 23.632 24.5591 22.8585V16.2216C24.5648 15.4481 23.9335 14.8111 23.16 14.8111ZM13.1961 1.63388L14.743 2.27085L13.1961 2.90782V1.63388ZM12.8776 5.51824L16.4833 10.9609H16.1193H9.63018H9.2662L12.8776 5.51824ZM13.742 23.4727H11.6719V19.3552H13.742V23.4727ZM23.8254 22.8585C23.8254 23.2225 23.5297 23.5239 23.16 23.5239H14.4814V18.9799C14.4814 18.7751 14.3164 18.6102 14.1117 18.6102H11.3022C11.0975 18.6102 10.9326 18.7751 10.9326 18.9799V23.5239H1.95815C1.59416 23.5239 1.29274 23.2225 1.29274 22.8585V16.2216C1.29274 15.8576 1.58848 15.5562 1.95815 15.5562H8.6008C8.70317 15.5562 8.79985 15.5163 8.87379 15.4367C8.94203 15.3628 8.98184 15.2604 8.97047 15.1581C8.97047 15.1296 8.96478 15.0955 8.96478 15.0671V12.5988C8.96478 12.1097 9.27189 11.7002 9.63018 11.7002H16.1193C16.4776 11.7002 16.7847 12.1097 16.7847 12.5988V15.0671C16.7847 15.0955 16.7847 15.1296 16.779 15.1581C16.7733 15.2604 16.8074 15.3628 16.8757 15.4367C16.9439 15.5107 17.0463 15.5562 17.1487 15.5562H23.1544C23.524 15.5562 23.8198 15.8576 23.8198 16.2216V22.8585H23.8254Z" />
    <path d="M12.2293 13.2585H10.3753C10.2729 13.2585 10.1876 13.3438 10.1876 13.4461V15.3002C10.1876 15.4025 10.2729 15.4878 10.3753 15.4878H12.2293C12.3317 15.4878 12.417 15.4025 12.417 15.3002V13.4461C12.4113 13.3438 12.3317 13.2585 12.2293 13.2585ZM12.0417 15.1125H10.5573V13.6281H12.0417V15.1125Z" />
    <path d="M15.198 13.2585H13.344C13.2416 13.2585 13.1563 13.3438 13.1563 13.4461V15.3002C13.1563 15.4025 13.2416 15.4878 13.344 15.4878H15.198C15.3004 15.4878 15.3857 15.4025 15.3857 15.3002V13.4461C15.3857 13.3438 15.3004 13.2585 15.198 13.2585ZM15.016 15.1125H13.5317V13.6281H15.016V15.1125Z" />
    <path d="M5.27376 18.4965H3.41973C3.31736 18.4965 3.23206 18.5818 3.23206 18.6841V20.5382C3.23206 20.6405 3.31736 20.7258 3.41973 20.7258H5.27376C5.37613 20.7258 5.46144 20.6405 5.46144 20.5382V18.6841C5.45575 18.5818 5.37613 18.4965 5.27376 18.4965ZM5.08608 20.3505H3.60172V18.8661H5.08608V20.3505V20.3505Z" />
    <path d="M8.24263 18.4965H6.38861C6.28624 18.4965 6.20093 18.5818 6.20093 18.6841V20.5382C6.20093 20.6405 6.28624 20.7258 6.38861 20.7258H8.24263C8.345 20.7258 8.43031 20.6405 8.43031 20.5382V18.6841C8.43031 18.5818 8.345 18.4965 8.24263 18.4965ZM8.06064 20.3505H6.57628V18.8661H8.06064V20.3505Z" />
    <path d="M19.0595 18.4965H17.2055C17.1031 18.4965 17.0178 18.5818 17.0178 18.6841V20.5382C17.0178 20.6405 17.1031 20.7258 17.2055 20.7258H19.0595C19.1619 20.7258 19.2472 20.6405 19.2472 20.5382V18.6841C19.2472 18.5818 19.1619 18.4965 19.0595 18.4965ZM18.8775 20.3505H17.3932V18.8661H18.8775V20.3505Z" />
    <path d="M22.034 18.4965H20.18C20.0776 18.4965 19.9923 18.5818 19.9923 18.6841V20.5382C19.9923 20.6405 20.0776 20.7258 20.18 20.7258H22.034C22.1364 20.7258 22.2217 20.6405 22.2217 20.5382V18.6841C22.2217 18.5818 22.1364 18.4965 22.034 18.4965ZM21.8463 20.3505H20.362V18.8661H21.8463V20.3505Z" />
</svg>
