<svg width="23" height="23" viewBox="0 0 23 23" fill="none"
    xmlns="http://www.w3.org/2000/svg">
    <path d="M12.8554 0.507787C12.7405 0.500129 12.6409 0.546078 12.5567 0.62266C12.4801 0.699242 12.4342 0.806457 12.4342 0.913672L12.3806 9.08499C12.3806 9.25347 12.4801 9.40663 12.6333 9.4679C12.6869 9.49087 12.7405 9.49853 12.7864 9.49853C12.8937 9.49853 13.0009 9.45258 13.0851 9.376L18.8594 3.42557C18.936 3.34898 18.9819 3.24177 18.9743 3.1269C18.9743 3.01202 18.9207 2.91247 18.8441 2.83588C17.3124 1.42677 15.0762 0.553736 12.8554 0.507787ZM13.2153 8.06644L13.2612 1.35019C14.992 1.47272 16.6998 2.13133 17.9711 3.16519L13.2153 8.06644Z" />
    <path d="M21.1339 15.9621L11.9287 11.0915V0.867737C11.9287 0.645648 11.7449 0.461851 11.5228 0.454193H11.4462C11.4003 0.454193 11.3543 0.454193 11.3084 0.454193C5.43453 0.454193 0.8396 5.23292 0.8396 11.3365C0.8396 17.3406 5.72554 22.2188 11.7219 22.2188C15.7884 22.2188 19.8243 19.8142 21.3177 16.4905C21.4096 16.299 21.3253 16.0616 21.1339 15.9621ZM11.7219 21.3994C6.17737 21.3994 1.65903 16.8887 1.65903 11.3365C1.65903 5.76899 5.78681 1.3885 11.1016 1.28128V11.3365C11.1016 11.4897 11.1858 11.6275 11.3237 11.7041L20.391 16.5058C18.913 19.3623 15.3366 21.3994 11.7219 21.3994Z" />
    <path d="M20.9958 5.52392C20.766 5.16398 20.521 4.82702 20.2606 4.51303C20.2223 4.45943 20.161 4.43645 20.0998 4.42114C20.0998 4.35987 20.0768 4.2986 20.0308 4.245C19.9006 4.09949 19.7781 3.9693 19.6632 3.85443C19.6096 3.80082 19.5484 3.77019 19.4641 3.77019C19.3875 3.77019 19.3186 3.80082 19.2727 3.85443L18.4609 4.68917C18.4303 4.71981 18.4073 4.7581 18.392 4.79639L18.3001 5.0874C18.2005 5.04911 18.0856 5.07208 18.0091 5.14867L16.5004 6.69562C16.4698 6.72626 16.4468 6.76455 16.4315 6.80284L16.3396 7.09385C16.24 7.05556 16.1251 7.07854 16.0486 7.15512L14.5399 8.70208C14.5093 8.73271 14.4863 8.771 14.4786 8.80929L14.3867 9.1003C14.2872 9.06201 14.1723 9.08499 14.0957 9.16157L12.8857 10.4022C12.8245 10.4635 12.7938 10.5477 12.8091 10.6319C12.8245 10.7162 12.8781 10.7928 12.9546 10.8311L13.6515 11.2063C13.6898 11.2293 13.7358 11.2369 13.7817 11.2369C13.7894 11.2369 13.797 11.2369 13.8047 11.2369C13.8277 11.2829 13.866 11.3212 13.9119 11.3442L14.785 11.8113C14.8232 11.8343 14.8692 11.8419 14.9151 11.8419C14.9228 11.8419 14.9305 11.8419 14.9381 11.8419C14.9611 11.8879 14.9994 11.9262 15.0453 11.9492L15.9184 12.4163C15.9567 12.4393 16.0026 12.4469 16.0486 12.4469C16.0562 12.4469 16.0639 12.4469 16.0715 12.4469C16.0945 12.4929 16.1328 12.5312 16.1788 12.5542L17.0518 13.0213C17.0901 13.0443 17.136 13.0519 17.182 13.0519C17.1896 13.0519 17.1973 13.0443 17.205 13.0443C17.2279 13.0902 17.2662 13.1285 17.3122 13.1515L18.1852 13.6186C18.2235 13.6416 18.2694 13.6493 18.3154 13.6493C18.3231 13.6493 18.3307 13.6416 18.3384 13.6416C18.3613 13.6876 18.3996 13.7259 18.4456 13.7488L19.3186 14.216C19.3569 14.239 19.4029 14.2466 19.4488 14.2466C19.4565 14.2466 19.4641 14.2466 19.4718 14.239C19.4948 14.2849 19.5331 14.3232 19.579 14.3462L20.452 14.8133C20.4903 14.8363 20.5363 14.844 20.5822 14.844C20.5899 14.844 20.5975 14.844 20.6052 14.8363C20.6282 14.8823 20.6665 14.9205 20.7124 14.9435L21.2255 15.2192C21.2638 15.2422 21.3098 15.2498 21.3557 15.2498C21.3863 15.2498 21.4093 15.2422 21.4399 15.2345C21.5089 15.2116 21.5701 15.1656 21.6008 15.0967C22.2287 13.879 22.5504 12.3857 22.5504 10.6702C22.5504 10.5094 22.5427 10.3409 22.5351 10.1648C22.5274 10.0423 22.4432 9.95037 22.3283 9.91973L22.4508 9.53682C22.4661 9.49853 22.4661 9.46024 22.4585 9.41429C22.3666 8.77866 22.2134 8.14303 21.999 7.53037C21.9684 7.44613 21.8994 7.37721 21.8075 7.35423L21.8535 7.34657C21.8765 7.28531 21.8688 7.21638 21.8458 7.16278C21.662 6.7186 21.4476 6.28208 21.2025 5.86088C21.1643 5.79196 21.103 5.75366 21.0341 5.73835C21.0494 5.66177 21.0341 5.58518 20.9958 5.52392ZM13.6362 10.586L13.552 10.54L13.6975 10.3869L13.6362 10.586ZM14.7696 11.191L14.3867 10.9842L14.9917 9.0467L15.6503 8.37277L14.7696 11.191ZM15.9031 11.796L15.5201 11.5892L16.9522 7.04024L17.6108 6.36632L15.9031 11.796ZM17.0365 12.4087L16.6536 12.2019L18.9051 5.03379L19.4718 4.45177C19.4871 4.46708 19.5024 4.4824 19.5177 4.49772L17.0365 12.4087ZM18.1699 13.0136L17.787 12.8069L20.1534 5.2712C20.2606 5.4167 20.3601 5.56221 20.4597 5.71537L18.1699 13.0136ZM21.2561 14.6678L21.1949 14.6372L21.9148 12.3397C21.7922 13.1974 21.5701 13.9786 21.2561 14.6678ZM21.9224 9.50619L20.4367 14.2313L20.0538 14.0245L21.7463 8.63315C21.8229 8.92416 21.8765 9.21518 21.9224 9.50619ZM21.0341 6.70328C21.126 6.89474 21.2179 7.08619 21.2944 7.27765L19.3033 13.6263L18.9204 13.4195L21.0341 6.70328Z" />
</svg>
