<svg width="80" height="80" viewBox="0 0 80 80" fill="none"
    xmlns="http://www.w3.org/2000/svg">
    <path d="M24.4633 33.6167L39.9992 18.0811L55.5432 33.6247L64.5832 24.5847L39.9992 0L15.4237 24.5767L24.4633 33.6167ZM0 39.9986L9.04025 30.9584L18.0799 39.9981L9.03973 49.0382L0 39.9986ZM24.4633 46.3831L39.9992 61.9186L55.5428 46.3755L64.5876 55.4106L64.5832 55.4154L39.9992 79.9998L15.4229 55.4238L15.4101 55.411L24.4633 46.3831ZM61.9201 40.0036L70.9603 30.9634L80 40.003L70.9598 49.0433L61.9201 40.0036Z" fill="#F3BA2F"/>
    <path d="M49.1684 39.995H49.1724L39.9992 30.8218L33.22 37.601H33.2196L32.4409 38.3802L30.8345 39.987L30.8217 39.9993L30.8345 40.0126L39.9992 49.1777L49.1724 40.0046L49.1768 39.9993L49.1684 39.995" fill="#F3BA2F"/>
</svg>
