<svg width="42" height="42" viewBox="0 0 42 42" fill="none"
	xmlns="http://www.w3.org/2000/svg">
	<path d="M12.3939 21.3613L6.93598 26.8192C6.63183 27.1234 6.14437 27.1234 5.84022 26.8192L0.228109 21.2071C-0.0760364 20.903 -0.0760364 20.4155 0.228109 20.1114L5.68606 14.6534C5.99021 14.3493 6.47768 14.3493 6.78182 14.6534L12.3939 20.2655C12.6981 20.5697 12.6981 21.0613 12.3939 21.3613Z" fill="#F3BA2F"/>
	<path d="M21.2098 0.224984L26.822 5.8371C27.1261 6.14124 27.1261 6.62871 26.822 6.93285L14.3728 19.382C14.0687 19.6861 13.5812 19.6861 13.2771 19.382L7.66494 13.7699C7.36079 13.4657 7.36079 12.9783 7.66494 12.6741L20.1141 0.224984C20.4141 -0.0749948 20.9057 -0.0749948 21.2098 0.224984Z" fill="#F3BA2F"/>
	<path d="M28.8009 7.82088L34.313 13.333C34.6172 13.6371 34.6172 14.1246 34.313 14.4288L14.4311 34.3107C14.1269 34.6149 13.6395 34.6149 13.3353 34.3107L7.8232 28.7986C7.51906 28.4945 7.51906 28.007 7.8232 27.7028L27.7052 7.82088C28.0093 7.51674 28.4968 7.51674 28.8009 7.82088Z" fill="#F3BA2F"/>
	<path d="M15.3146 35.1931L35.1966 15.3111C35.5007 15.007 35.9882 15.007 36.2923 15.3111L41.0962 20.115C41.4003 20.4191 41.4003 20.9066 41.0962 21.2107L21.2101 41.0927C20.9059 41.3968 20.4184 41.3968 20.1143 41.0927L15.3146 36.2888C15.0105 35.9889 15.0105 35.4972 15.3146 35.1931Z" fill="#F3BA2F"/>
</svg>
