  <svg
    xmlns="http://www.w3.org/2000/svg"
    width={333.333}
    height={320}
    viewBox="0 0 250 240"
  >
    <path d="M53.3 47.9C48.2 53.3 44 58.1 44 58.6c0 .4 5 5.6 11.2 11.4l11.2 10.6-3.7 7.7c-9.4 19.2-9.5 42.7-.2 61.1l3.4 6.9L54 168.8c-6.6 6.9-12 12.8-12 13.3 0 .4 4.6 5.1 10.3 10.4l10.2 9.7 12-12.7 12-12.6 3.5 2.2c10.7 6.7 29.3 10.6 42.8 8.9 9.3-1.2 12.4-2.1 22.5-6.8l7.7-3.5 11.9 11.6c6.6 6.5 12.3 11.7 12.8 11.7s5.3-4.5 10.8-10l10-10-12.5-11.8-12.5-11.9 3.7-7.9c5.2-11.1 6.8-18.4 6.8-30.6 0-11.8-2.2-21.2-7.1-30.9l-3-6 11.5-12.2L207 57.5l-7.8-7.8c-4.2-4.3-9-8.8-10.6-10l-3-2.1-11 11.7L163.5 61l-8-4c-10.8-5.4-17.8-7-30.5-7-12.3 0-19.2 1.5-30.3 6.7L87 60.3 75.6 49.2C69.3 43 63.8 38 63.3 38.1c-.4 0-5 4.5-10 9.8zM132.9 78c21.6 4.1 36.9 25.8 33.4 47.3-4.7 28.2-34.5 43.6-60.1 31.1-7.3-3.6-15-11.3-18.6-18.6-15.2-31.2 11.3-66.3 45.3-59.8z" />
  </svg>