<svg xmlns="http://www.w3.org/2000/svg" viewBox="0 0 159.53 145.24"><defs><style>.cls-1{isolation:isolate;}.cls-2,.cls-5{fill:#d0ebfe;}.cls-2,.cls-7{mix-blend-mode:multiply;}.cls-2{opacity:0.3;}.cls-3{fill:#f7f9fb;}.cls-4{fill:#46324b;}.cls-6{fill:#fff;}.cls-7{opacity:0.5;}.cls-8{fill:#f0b4d2;}.cls-9{fill:#b776ba;}.cls-10{fill:#f3c1f6;}.cls-11{fill:#6d3c75;}.cls-12{fill:#f79839;}.cls-13{fill:#de7d33;}.cls-14{fill:none;stroke:#46324b;stroke-linecap:round;stroke-linejoin:round;stroke-width:3px;}.cls-15{fill:#f7c439;}</style></defs><g class="cls-1"><g id="Layer_2" data-name="Layer 2"><g id="Слой_1" data-name="Слой 1"><ellipse class="cls-2" cx="79.95" cy="136.32" rx="49.44" ry="8.93"/><ellipse class="cls-2" cx="18.73" cy="142.23" rx="8.87" ry="2.49"/><path class="cls-3" d="M80,138.79c-33.46,0-52.65-10.47-52.65-28.73,0-20.24,23.48-44.7,52.65-44.7s52.65,24.46,52.65,44.7C132.6,128.32,113.41,138.79,80,138.79Z"/><path class="cls-4" d="M80,66.86c28.25,0,51.15,23.76,51.15,43.2S108.2,137.29,80,137.29,28.8,129.51,28.8,110.06,51.7,66.86,80,66.86m0-3A57,57,0,0,0,41.77,79c-10,9-16,20.67-16,31.11,0,19.21,19.73,30.23,54.15,30.23s54.15-11,54.15-30.23c0-20.92-24.16-46.2-54.15-46.2Z"/><path class="cls-5" d="M80,66.86c-1.6,0-3.17.09-4.73.24,26,2.44,46.43,24.61,46.43,43s-20.39,26.31-46.43,27.15c1.56,0,3.13.08,4.73.08,28.25,0,51.15-7.78,51.15-27.23S108.2,66.86,80,66.86Z"/><path class="cls-6" d="M80,66.86c1.59,0,3.17.09,4.72.24-26,2.44-46.42,24.61-46.42,43s20.39,26.31,46.42,27.15c-1.55,0-3.13.08-4.72.08-28.25,0-51.15-7.78-51.15-27.23S51.7,66.86,80,66.86Z"/><g class="cls-7"><path class="cls-5" d="M79.56,99.7c16.45,0,32.83-4.87,44.25-9.91A55.91,55.91,0,0,0,101.73,71.7a120.34,120.34,0,0,1-21.65,1.88,120.36,120.36,0,0,1-21.84-1.91,55.88,55.88,0,0,0-22.09,18C47.74,94.88,63.68,99.69,79.56,99.7Z"/></g><ellipse class="cls-8" cx="43.75" cy="118.17" rx="8.26" ry="6.3"/><circle class="cls-4" cx="51.07" cy="111.95" r="6.6"/><ellipse class="cls-8" cx="116.14" cy="118.17" rx="8.26" ry="6.3"/><circle class="cls-4" cx="108.82" cy="111.95" r="6.6"/><circle class="cls-6" cx="48.41" cy="108.58" r="2.19"/><circle class="cls-6" cx="50.17" cy="111.74" r="0.72"/><circle class="cls-6" cx="105.95" cy="108.58" r="2.19"/><circle class="cls-6" cx="107.71" cy="111.74" r="0.72"/><path class="cls-4" d="M80,124.58c-5,0-7.76-4.33-7.76-8.41a2,2,0,0,1,2-2.28,5.29,5.29,0,0,1,2.24.75,8.46,8.46,0,0,0,3.52,1.1,8.49,8.49,0,0,0,3.54-1.09,5.46,5.46,0,0,1,2.22-.72,2,2,0,0,1,2,2.24C87.7,120.25,85,124.58,80,124.58Z"/><path class="cls-4" d="M74.19,115.39c1,0,3.18,1.85,5.76,1.85s4.81-1.81,5.76-1.81c.32,0,.49.2.49.74,0,3.46-2.29,6.91-6.25,6.91s-6.26-3.45-6.26-6.91c0-.56.18-.78.5-.78m0-3a3.52,3.52,0,0,0-3.5,3.78c0,4.88,3.46,9.91,9.26,9.91s9.25-5,9.25-9.91a3.49,3.49,0,0,0-3.49-3.74,6.61,6.61,0,0,0-2.87.87,7.38,7.38,0,0,1-2.89.94,7.16,7.16,0,0,1-2.86-.95,6.6,6.6,0,0,0-2.9-.9Z"/><path class="cls-8" d="M83.39,120.21c-.56-.23-1.76-.4-2.08.06a1.39,1.39,0,0,1-2.38,0c-.37-.72-1.4-.41-2.23-.24a5.6,5.6,0,0,0-1.63.55,6,6,0,0,0,9.36.49A2.21,2.21,0,0,0,83.39,120.21Z"/><path class="cls-9" d="M82.2,61.49c-9,0-18.75-1.87-29-5.54A1.51,1.51,0,0,1,52.27,54c.08-.22,7.59-21.71,13.35-34.27S76.58,1.5,82.12,1.5c3.58,0,6.23,2.79,8.79,5.49,1.73,1.81,3.52,3.69,5.31,4.29a2.48,2.48,0,0,0,.79.14c2.34,0,4.13-4.16,4.57-5.62A1.51,1.51,0,0,1,103,4.74h0a1.49,1.49,0,0,1,1.43,1.08c.13.44,3.11,10.92-.14,16.53-1.89,3.25-2.91,4.9-3.43,5.69l7.73,24.84a1.52,1.52,0,0,1-.48,1.61C107.78,54.77,99.34,61.49,82.2,61.49Z"/><path class="cls-4" d="M82.12,3c5.27,0,8.77,8.09,13.62,9.7a3.9,3.9,0,0,0,1.27.22c4,0,6-6.69,6-6.69s3,10.25,0,15.37-3.77,6.2-3.77,6.2l7.94,25.52S99,60,82.2,60c-7.69,0-17.18-1.4-28.51-5.46,0,0,7.5-21.49,13.3-34.14C71.93,9.61,76.85,3,82.12,3m0-3C74.07,0,68.35,10.23,64.26,19.14c-5.79,12.63-13.09,33.52-13.4,34.4a3,3,0,0,0,1.82,3.82A88.26,88.26,0,0,0,82.2,63c17.67,0,26.51-7,26.88-7.34a3,3,0,0,0,1-3.22l-7.52-24.17c.61-1,1.58-2.55,3.09-5.16,3.5-6.05.62-16.53.28-17.7A3,3,0,0,0,103,3.23h0a3,3,0,0,0-2.87,2.14C99.52,7.43,98,9.92,97,9.92a1,1,0,0,1-.32-.06C95.25,9.38,93.6,7.64,92,6,89.35,3.16,86.34,0,82.12,0Z"/><path class="cls-10" d="M72.07,22.73c3-11,6.55-18.21,11.45-19.52A5.51,5.51,0,0,0,82.12,3C76.85,3,71.93,9.61,67,20.39,61.19,33,53.69,54.53,53.69,54.53a101.06,101.06,0,0,0,11.08,3.29C65.47,53.77,68.85,34.69,72.07,22.73Z"/><path class="cls-11" d="M99.25,27.8s.8-1.08,3.77-6.2,0-15.37,0-15.37-2.43,8.09-7.28,6.47C91.49,11.29,88.28,4.91,84,3.35c2.94,5.76,4.1,12.54,4.2,18.92.1,6.89-1,14.59-5.06,20.38C78,50,68.45,51.32,60.15,50a37.68,37.68,0,0,1-4.49-1c-1.22,3.35-2,5.51-2,5.51,36.12,12.94,53.5-1.21,53.5-1.21Z"/><path class="cls-9" d="M130.54,96.83a1.38,1.38,0,0,1-.45-.08,1.47,1.47,0,0,1-.9-.77,44.06,44.06,0,0,0-10-13.62C113.64,85.1,97.77,92,79.66,92c-17.46,0-33.33-6.92-38.9-9.63-2,1.52-5.94,5.29-10.12,13.66a1.52,1.52,0,0,1-.88.75,1.44,1.44,0,0,1-1.15-.09l-.78-.4c-11.78-6.05-25.42-14-26.29-21.58a6.77,6.77,0,0,1,2.7-6.11A14.81,14.81,0,0,1,14.3,64.86a43.33,43.33,0,0,1,6.63.7,51.68,51.68,0,0,0,8.31.84c5.85,0,11.39-1.64,17.45-5.17a1.53,1.53,0,0,1,.75-.2,1.58,1.58,0,0,1,.81.23c6.38,4.07,18.26,6.49,31.77,6.49s25.38-2.42,31.77-6.49a1.52,1.52,0,0,1,.8-.23,1.44,1.44,0,0,1,.82.25,37.1,37.1,0,0,0,21,5.74c2.85,0,5.61-.2,8-.38,2.1-.16,4.08-.31,5.84-.31,3.71,0,8.13.63,9.42,5.5,2.77,10.43-13.19,18.26-22.72,22.94-1.49.73-2.77,1.36-3.72,1.87A1.52,1.52,0,0,1,130.54,96.83Z"/><path class="cls-4" d="M112.59,62.53c7.49,4.9,15.09,6,21.81,6,5.34,0,10.13-.69,13.88-.69,4.15,0,7,.84,8,4.38,2.87,10.82-19,19.47-25.71,23.11-4.21-8.71-9.84-13.88-11.13-14.72-9.16,4.64-24.42,9.87-39.75,9.87H79.6c-14.69,0-29.44-5.07-39-9.87-1.29.85-6.11,4.3-11.33,14.72C22.51,91.83-4.88,78.25,5.21,69.72a13.2,13.2,0,0,1,9.09-3.36c4.39,0,9.09,1.54,14.94,1.54,5,0,10.93-1.14,18.2-5.37C54.49,67,67.25,69.25,80,69.25s25.52-2.24,32.57-6.72m0-3A3,3,0,0,0,111,60c-6.06,3.86-17.93,6.25-31,6.25s-24.9-2.39-31-6.25a3,3,0,0,0-3.12-.06c-5.82,3.38-11.12,5-16.69,5a50.78,50.78,0,0,1-8.08-.82,44.29,44.29,0,0,0-6.86-.72,16.22,16.22,0,0,0-11,4.07A8.21,8.21,0,0,0,.05,74.85c1,8.32,15,16.52,27.09,22.74l.78.4a3,3,0,0,0,1.37.33,2.91,2.91,0,0,0,.93-.14A3,3,0,0,0,32,96.67c3.61-7.22,7-10.85,9-12.57,6.31,3,21.75,9.36,38.63,9.37h.07c17.51,0,33-6.31,39.32-9.32a44.77,44.77,0,0,1,8.86,12.48,3,3,0,0,0,1.79,1.55,2.88,2.88,0,0,0,.91.14A3,3,0,0,0,132,98c.92-.5,2.19-1.12,3.66-1.84,10-4.88,26.6-13.05,23.51-24.68-1.75-6.61-8.37-6.61-10.87-6.61-1.82,0-3.82.15-5.95.31-2.53.19-5.14.38-7.93.38A35.69,35.69,0,0,1,114.23,60a2.94,2.94,0,0,0-1.64-.49Z"/><path class="cls-11" d="M36.26,80.34c-3.09-1.84-6-3.94-9.24-5.57a35,35,0,0,0-10-3.44c-3.21-.54-7.28-.76-10.33.57a5.85,5.85,0,0,0-3,2.7,4.14,4.14,0,0,0-.32,1.09c2.53,7.87,20.65,16.88,26,19.63,3.84-7.66,7.46-11.55,9.62-13.41Z"/><path class="cls-11" d="M152.56,82a11,11,0,0,0,1.64-5.52A4.36,4.36,0,0,0,152.75,73c-1.27-1-3.2-1.1-4.73-1.16-4.1-.17-8.17,1-12.07,2.09a52.52,52.52,0,0,0-11.75,4.81c-1.34.78-2.64,1.66-3.91,2.55a45.85,45.85,0,0,1,10.25,14C135.07,92.87,146.49,88.13,152.56,82Z"/><path class="cls-10" d="M133,75.34a53.78,53.78,0,0,0-10,2.41c-6.54,2.1-12.8,5-19.44,6.82A70.25,70.25,0,0,1,83.49,87.3c-31.28-.78-48.95-17.15-55.16-19.42-9.47-.26-15.92-4.25-23.12,1.84a5.24,5.24,0,0,0-1.44,7c0-.2,0-.4,0-.6.5-4.19,4.13-5.77,7.93-5.84,4.34-.09,8.6,1.28,12.7,2.66,4.77,1.61,9.22,3.5,13.06,6.74.74.62,1.44,1.27,2.15,1.93a4.81,4.81,0,0,1,1-1c9.54,4.8,24.29,9.86,39,9.87,15.35,0,30.63-5.22,39.81-9.87a10.41,10.41,0,0,1,1.29,1.1l.44-.19A39.9,39.9,0,0,0,126,79.3a80.74,80.74,0,0,1,7.22-4Z"/><path class="cls-11" d="M48.81,64.82a28.79,28.79,0,0,0,9,4.32,108.46,108.46,0,0,0,22.85,4c4.3.36,8.62.55,12.93.59a81.49,81.49,0,0,0,12.79-.59A63.34,63.34,0,0,0,124,67.42a35.33,35.33,0,0,1-11.45-4.89c-7,4.48-19.81,6.72-32.57,6.72S54.49,67,47.44,62.53c-.25.15-.49.27-.74.41A19,19,0,0,0,48.81,64.82Z"/><path class="cls-12" d="M80,68.25a133.16,133.16,0,0,1-30.31-3.69,4.5,4.5,0,0,1-3.27-5.75l1.34-4.11a4.47,4.47,0,0,1,4.27-3.08,4.57,4.57,0,0,1,1.21.16A104.42,104.42,0,0,0,81,55.61a87.78,87.78,0,0,0,25.74-3.72,4.34,4.34,0,0,1,1.29-.2,4.45,4.45,0,0,1,4.24,3.1l1.31,4a4.48,4.48,0,0,1-3.27,5.75A133,133,0,0,1,80,68.25Z"/><path class="cls-4" d="M52.05,53.12a2.82,2.82,0,0,1,.81.11A106.15,106.15,0,0,0,81,57.11a89.14,89.14,0,0,0,26.19-3.79,3.13,3.13,0,0,1,.85-.13,3,3,0,0,1,2.82,2.06c.45,1.41.85,2.64,1.3,4A3,3,0,0,1,110,63.1a131.41,131.41,0,0,1-30,3.65,131.33,131.33,0,0,1-30-3.65,3,3,0,0,1-2.18-3.83l1.34-4.11a3,3,0,0,1,2.84-2m0-3a6,6,0,0,0-5.7,4.12l-.72,2.21L45,58.35A6,6,0,0,0,49.37,66,135,135,0,0,0,80,69.75,134.93,134.93,0,0,0,110.66,66,6,6,0,0,0,115,58.35L114.26,56l-.55-1.7a5.94,5.94,0,0,0-7.4-3.88A86.2,86.2,0,0,1,81,54.11a103.09,103.09,0,0,1-27.34-3.77,5.9,5.9,0,0,0-1.61-.22Z"/><path class="cls-13" d="M110.86,55.25a3,3,0,0,0-1.3-1.61,43.91,43.91,0,0,1-6.42,2.14,102.75,102.75,0,0,1-31.89,5A120.9,120.9,0,0,1,54.49,59.2q-3.14-.45-6.26-1-.16.54-.36,1.11a3,3,0,0,0,2.18,3.83C71.17,68,89,68,110,63.1a3,3,0,0,0,2.18-3.83C111.71,57.89,111.31,56.66,110.86,55.25Z"/><path class="cls-14" d="M6.3,73.9c1.34-3.24,11.61-6,35.1,8.83"/><path class="cls-14" d="M153.74,73.9c-1.35-3.24-11.62-6-35.11,8.86"/><line class="cls-14" x1="101.4" y1="28.58" x2="97.87" y2="18.84"/><path class="cls-15" d="M73.85,74a6.59,6.59,0,0,1-6.58-6.58V55.11a6.58,6.58,0,0,1,6.58-6.57H86.19a6.58,6.58,0,0,1,6.57,6.57V67.45A6.58,6.58,0,0,1,86.19,74Zm0-6.58,12.33,0,0-12.32-12.31,0Z"/><path class="cls-4" d="M86.19,50a5.07,5.07,0,0,1,5.07,5.07V67.45a5.07,5.07,0,0,1-5.07,5.08H73.85a5.07,5.07,0,0,1-5.08-5.08V55.11A5.07,5.07,0,0,1,73.85,50H86.19M73.85,68.93H86.19a1.48,1.48,0,0,0,1.48-1.48V55.11a1.48,1.48,0,0,0-1.48-1.48H73.85a1.49,1.49,0,0,0-1.49,1.48V67.45a1.49,1.49,0,0,0,1.49,1.48M86.19,47H73.85a8.08,8.08,0,0,0-8.08,8.07V67.45a8.08,8.08,0,0,0,8.08,8.08H86.19a8.08,8.08,0,0,0,8.07-8.08V55.11A8.08,8.08,0,0,0,86.19,47ZM75.36,56.63h9.31v9.3H75.36v-9.3Z"/><path class="cls-15" d="M65.35,63.87a2.59,2.59,0,0,1,0-5.18h7.92a2.59,2.59,0,0,1,0,5.18Z"/><path class="cls-4" d="M73.27,60.19a1.09,1.09,0,0,1,0,2.18H65.35a1.09,1.09,0,1,1,0-2.18h7.92m0-3H65.35a4.09,4.09,0,1,0,0,8.18h7.92a4.09,4.09,0,1,0,0-8.18Z"/><circle class="cls-4" cx="80.71" cy="61.28" r="1.8"/><circle class="cls-4" cx="98.5" cy="60.73" r="1.8"/></g></g></g></svg>